<svg width="976" height="188" viewBox="0 0 976 188" fill="none" xmlns="http://www.w3.org/2000/svg">
<g filter="url(#filter0_d_12_50)">
<rect x="0.601379" width="975" height="165.695" fill="#70AEFF"/>
<rect x="-4.39862" y="-5" width="985" height="175.695" stroke="black" stroke-width="10"/>
</g>
<path d="M87.8923 30.7852L133.684 30.7852C138.399 30.7852 142.676 31.3292 146.516 32.4172C150.356 33.4838 153.631 35.0198 156.34 37.0252C159.071 39.0305 161.172 41.4625 162.644 44.3212C164.116 47.1798 164.852 50.3905 164.852 53.9532C164.852 57.1105 164.287 59.9905 163.156 62.5932C162.047 65.1745 160.511 67.3932 158.548 69.2492C156.607 71.1052 154.292 72.5558 151.604 73.6012C148.938 74.6252 146.047 75.1372 142.932 75.1372V74.8172C146.623 74.8172 150.036 75.3825 153.172 76.5132C156.33 77.6225 159.05 79.1798 161.332 81.1852C163.636 83.1905 165.439 85.6012 166.74 88.4172C168.063 91.2118 168.724 94.2945 168.724 97.6652C168.724 101.42 167.892 104.823 166.228 107.873C164.586 110.903 162.271 113.495 159.284 115.649C156.298 117.783 152.724 119.425 148.564 120.577C144.404 121.729 139.818 122.305 134.804 122.305H87.8923V30.7852ZM108.116 106.497L107.732 106.113H133.364C135.882 106.113 138.079 105.889 139.956 105.441C141.855 104.972 143.434 104.279 144.692 103.361C145.972 102.423 146.922 101.249 147.54 99.8412C148.18 98.4332 148.5 96.7692 148.5 94.8492C148.5 92.9292 148.18 91.2652 147.54 89.8572C146.922 88.4492 145.972 87.2865 144.692 86.3692C143.434 85.4305 141.855 84.7372 139.956 84.2892C138.079 83.8412 135.892 83.6172 133.396 83.6172L107.732 83.6172L108.116 83.2332V106.497ZM131.636 68.8332C133.599 68.8332 135.391 68.5772 137.012 68.0652C138.634 67.5318 140.02 66.7852 141.172 65.8252C142.346 64.8652 143.242 63.6812 143.86 62.2732C144.5 60.8652 144.82 59.2865 144.82 57.5372C144.82 55.8305 144.511 54.3265 143.892 53.0252C143.295 51.7025 142.431 50.5932 141.3 49.6972C140.17 48.8012 138.783 48.1292 137.14 47.6812C135.498 47.2118 133.642 46.9772 131.572 46.9772H107.732L108.116 46.5932V69.2172L107.732 68.8332L131.636 68.8332ZM194.24 90.0812V122.305H175.072V51.7452H194.24V76.6092L194.176 76.7052C194.774 72.8652 195.691 69.4092 196.928 66.3372C198.166 63.2438 199.755 60.6198 201.696 58.4652C203.638 56.3105 205.942 54.6572 208.608 53.5052C211.275 52.3318 214.347 51.7452 217.824 51.7452H222.016V69.7932H214.624C210.699 69.7932 207.424 70.1985 204.8 71.0092C202.198 71.8198 200.107 73.0572 198.528 74.7212C196.971 76.3852 195.862 78.4972 195.2 81.0572C194.56 83.5958 194.24 86.6038 194.24 90.0812ZM247.615 51.7452V122.305H228.447V51.7452L247.615 51.7452ZM247.807 27.5852V44.3532L228.255 44.3532V27.5852L247.807 27.5852ZM274.99 85.2812V122.305L255.822 122.305V51.7452H274.99V73.3132L274.894 73.4092C275.62 69.5905 276.697 66.2198 278.126 63.2972C279.577 60.3532 281.358 57.8892 283.47 55.9052C285.582 53.9212 288.004 52.4172 290.734 51.3932C293.465 50.3478 296.484 49.8252 299.79 49.8252C303.588 49.8252 306.948 50.5078 309.87 51.8732C312.793 53.2385 315.236 55.2545 317.198 57.9212C319.161 60.5878 320.654 63.8838 321.678 67.8092C322.702 71.7132 323.214 76.2145 323.214 81.3132V122.305H304.046V84.5132C304.046 81.5052 303.758 78.8812 303.182 76.6412C302.628 74.3798 301.774 72.5025 300.622 71.0092C299.492 69.5158 298.062 68.3958 296.334 67.6492C294.628 66.9025 292.622 66.5292 290.318 66.5292C288.697 66.5292 287.193 66.7105 285.806 67.0732C284.42 67.4358 283.15 67.9798 281.998 68.7052C280.868 69.4092 279.865 70.2945 278.99 71.3612C278.116 72.4065 277.38 73.6332 276.782 75.0412C276.206 76.4278 275.758 77.9745 275.438 79.6812C275.14 81.3878 274.99 83.2545 274.99 85.2812ZM382.24 51.7452H401.408V112.833C401.408 118.295 400.566 123.223 398.88 127.617C397.216 132.012 394.827 135.745 391.712 138.817C388.619 141.911 384.854 144.289 380.416 145.953C376 147.639 371.062 148.481 365.6 148.481C362.187 148.481 358.955 148.161 355.904 147.521C352.875 146.903 350.08 145.996 347.52 144.801C344.96 143.628 342.656 142.188 340.608 140.481C338.56 138.796 336.822 136.887 335.392 134.753C333.963 132.641 332.864 130.337 332.096 127.841C331.328 125.345 330.944 122.689 330.944 119.873H350.048C350.048 121.921 350.422 123.777 351.168 125.441C351.936 127.127 352.992 128.567 354.336 129.761C355.68 130.977 357.291 131.916 359.168 132.577C361.046 133.239 363.094 133.569 365.312 133.569C367.936 133.569 370.294 133.1 372.384 132.161C374.475 131.223 376.246 129.857 377.696 128.065C379.147 126.295 380.267 124.14 381.056 121.601C381.846 119.041 382.24 116.161 382.24 112.961V96.8332L382.336 96.7692C381.568 100.311 380.47 103.468 379.04 106.241C377.611 109.015 375.872 111.361 373.824 113.281C371.776 115.18 369.451 116.631 366.848 117.633C364.246 118.615 361.376 119.105 358.24 119.105C355.488 119.105 352.875 118.721 350.4 117.953C347.947 117.164 345.675 116.055 343.584 114.625C341.494 113.175 339.606 111.415 337.92 109.345C336.235 107.276 334.806 104.951 333.632 102.369C332.459 99.7878 331.552 96.9718 330.912 93.9212C330.294 90.8492 329.984 87.6065 329.984 84.1932C329.984 80.7798 330.294 77.5585 330.912 74.5292C331.552 71.4998 332.459 68.7158 333.632 66.1772C334.806 63.6172 336.235 61.3345 337.92 59.3292C339.606 57.3025 341.494 55.5852 343.584 54.1772C345.675 52.7692 347.947 51.6918 350.4 50.9452C352.875 50.1985 355.499 49.8252 358.272 49.8252C361.387 49.8252 364.246 50.3052 366.848 51.2652C369.451 52.2252 371.776 53.6332 373.824 55.4892C375.872 57.3452 377.611 59.6385 379.04 62.3692C380.47 65.0785 381.568 68.1932 382.336 71.7132L382.24 71.6172V51.7452ZM382.24 84.1932C382.24 82.2518 382.07 80.4598 381.728 78.8172C381.408 77.1745 380.918 75.6918 380.256 74.3692C379.616 73.0465 378.816 71.8838 377.856 70.8812C376.918 69.8785 375.819 69.0358 374.56 68.3532C373.323 67.6705 371.936 67.1692 370.4 66.8492C368.864 66.5078 367.2 66.3372 365.408 66.3372C362.784 66.3372 360.47 66.6998 358.464 67.4252C356.459 68.1505 354.774 69.2598 353.408 70.7532C352.043 72.2252 351.008 74.0812 350.304 76.3212C349.622 78.5612 349.28 81.1852 349.28 84.1932C349.28 87.2225 349.622 89.8785 350.304 92.1612C351.008 94.4438 352.043 96.3638 353.408 97.9212C354.774 99.4572 356.459 100.62 358.464 101.409C360.47 102.199 362.784 102.593 365.408 102.593C367.2 102.593 368.864 102.412 370.4 102.049C371.936 101.687 373.323 101.153 374.56 100.449C375.798 99.7238 376.896 98.8385 377.856 97.7932C378.816 96.7478 379.616 95.5425 380.256 94.1772C380.918 92.8118 381.408 91.2972 381.728 89.6332C382.07 87.9692 382.24 86.1558 382.24 84.1932ZM428.74 51.7452V122.305L409.572 122.305V51.7452H428.74ZM428.932 27.5852V44.3532H409.38V27.5852H428.932ZM456.115 85.2812V122.305H436.947V51.7452L456.115 51.7452V73.3132L456.019 73.4092C456.745 69.5905 457.822 66.2198 459.251 63.2972C460.702 60.3532 462.483 57.8892 464.595 55.9052C466.707 53.9212 469.129 52.4172 471.859 51.3932C474.59 50.3478 477.609 49.8252 480.915 49.8252C484.713 49.8252 488.073 50.5078 490.995 51.8732C493.918 53.2385 496.361 55.2545 498.323 57.9212C500.286 60.5878 501.779 63.8838 502.803 67.8092C503.827 71.7132 504.339 76.2145 504.339 81.3132V122.305H485.171V84.5132C485.171 81.5052 484.883 78.8812 484.307 76.6412C483.753 74.3798 482.899 72.5025 481.747 71.0092C480.617 69.5158 479.187 68.3958 477.459 67.6492C475.753 66.9025 473.747 66.5292 471.443 66.5292C469.822 66.5292 468.318 66.7105 466.931 67.0732C465.545 67.4358 464.275 67.9798 463.123 68.7052C461.993 69.4092 460.99 70.2945 460.115 71.3612C459.241 72.4065 458.505 73.6332 457.907 75.0412C457.331 76.4278 456.883 77.9745 456.563 79.6812C456.265 81.3878 456.115 83.2545 456.115 85.2812ZM563.365 51.7452L582.533 51.7452V112.833C582.533 118.295 581.691 123.223 580.005 127.617C578.341 132.012 575.952 135.745 572.837 138.817C569.744 141.911 565.979 144.289 561.541 145.953C557.125 147.639 552.187 148.481 546.725 148.481C543.312 148.481 540.08 148.161 537.029 147.521C534 146.903 531.205 145.996 528.645 144.801C526.085 143.628 523.781 142.188 521.733 140.481C519.685 138.796 517.947 136.887 516.517 134.753C515.088 132.641 513.989 130.337 513.221 127.841C512.453 125.345 512.069 122.689 512.069 119.873H531.173C531.173 121.921 531.547 123.777 532.293 125.441C533.061 127.127 534.117 128.567 535.461 129.761C536.805 130.977 538.416 131.916 540.293 132.577C542.171 133.239 544.219 133.569 546.437 133.569C549.061 133.569 551.419 133.1 553.509 132.161C555.6 131.223 557.371 129.857 558.821 128.065C560.272 126.295 561.392 124.14 562.181 121.601C562.971 119.041 563.365 116.161 563.365 112.961V96.8332L563.461 96.7692C562.693 100.311 561.595 103.468 560.165 106.241C558.736 109.015 556.997 111.361 554.949 113.281C552.901 115.18 550.576 116.631 547.973 117.633C545.371 118.615 542.501 119.105 539.365 119.105C536.613 119.105 534 118.721 531.525 117.953C529.072 117.164 526.8 116.055 524.709 114.625C522.619 113.175 520.731 111.415 519.045 109.345C517.36 107.276 515.931 104.951 514.757 102.369C513.584 99.7878 512.677 96.9718 512.037 93.9212C511.419 90.8492 511.109 87.6065 511.109 84.1932C511.109 80.7798 511.419 77.5585 512.037 74.5292C512.677 71.4998 513.584 68.7158 514.757 66.1772C515.931 63.6172 517.36 61.3345 519.045 59.3292C520.731 57.3025 522.619 55.5852 524.709 54.1772C526.8 52.7692 529.072 51.6918 531.525 50.9452C534 50.1985 536.624 49.8252 539.397 49.8252C542.512 49.8252 545.371 50.3052 547.973 51.2652C550.576 52.2252 552.901 53.6332 554.949 55.4892C556.997 57.3452 558.736 59.6385 560.165 62.3692C561.595 65.0785 562.693 68.1932 563.461 71.7132L563.365 71.6172V51.7452ZM563.365 84.1932C563.365 82.2518 563.195 80.4598 562.853 78.8172C562.533 77.1745 562.043 75.6918 561.381 74.3692C560.741 73.0465 559.941 71.8838 558.981 70.8812C558.043 69.8785 556.944 69.0358 555.685 68.3532C554.448 67.6705 553.061 67.1692 551.525 66.8492C549.989 66.5078 548.325 66.3372 546.533 66.3372C543.909 66.3372 541.595 66.6998 539.589 67.4252C537.584 68.1505 535.899 69.2598 534.533 70.7532C533.168 72.2252 532.133 74.0812 531.429 76.3212C530.747 78.5612 530.405 81.1852 530.405 84.1932C530.405 87.2225 530.747 89.8785 531.429 92.1612C532.133 94.4438 533.168 96.3638 534.533 97.9212C535.899 99.4572 537.584 100.62 539.589 101.409C541.595 102.199 543.909 102.593 546.533 102.593C548.325 102.593 549.989 102.412 551.525 102.049C553.061 101.687 554.448 101.153 555.685 100.449C556.923 99.7238 558.021 98.8385 558.981 97.7932C559.941 96.7478 560.741 95.5425 561.381 94.1772C562.043 92.8118 562.533 91.2972 562.853 89.6332C563.195 87.9692 563.365 86.1558 563.365 84.1932ZM671.292 51.7452H691.004L664.092 124.289C662.556 128.492 660.743 132.108 658.652 135.137C656.583 138.188 654.183 140.695 651.452 142.657C648.722 144.641 645.65 146.103 642.236 147.041C638.844 148.001 635.036 148.481 630.812 148.481C629.212 148.481 627.57 148.407 625.884 148.257C624.22 148.108 622.492 147.884 620.7 147.585V132.097C622.172 132.289 623.527 132.439 624.764 132.545C626.002 132.652 627.164 132.705 628.252 132.705C630.279 132.705 632.114 132.524 633.756 132.161C635.399 131.82 636.882 131.276 638.204 130.529C639.548 129.804 640.732 128.865 641.756 127.713C642.802 126.561 643.719 125.185 644.508 123.585L646.3 119.265L644.636 126.817L617.212 51.7452L637.372 51.7452L656.732 115.745H651.676L671.292 51.7452ZM689.975 87.0092C689.975 83.2545 690.37 79.7345 691.159 76.4492C691.949 73.1425 693.079 70.1132 694.551 67.3612C696.045 64.6092 697.847 62.1452 699.959 59.9692C702.071 57.7932 704.45 55.9585 707.095 54.4652C709.741 52.9505 712.631 51.7985 715.767 51.0092C718.903 50.2198 722.231 49.8252 725.751 49.8252C729.271 49.8252 732.599 50.2198 735.735 51.0092C738.871 51.7985 741.762 52.9505 744.407 54.4652C747.053 55.9585 749.431 57.7932 751.543 59.9692C753.655 62.1452 755.447 64.6092 756.919 67.3612C758.413 70.1132 759.554 73.1425 760.343 76.4492C761.133 79.7345 761.527 83.2545 761.527 87.0092C761.527 90.7638 761.133 94.2945 760.343 97.6012C759.554 100.887 758.413 103.916 756.919 106.689C755.447 109.441 753.655 111.905 751.543 114.081C749.431 116.236 747.053 118.071 744.407 119.585C741.762 121.1 738.871 122.252 735.735 123.041C732.599 123.831 729.271 124.225 725.751 124.225C722.231 124.225 718.903 123.831 715.767 123.041C712.631 122.252 709.741 121.1 707.095 119.585C704.45 118.071 702.071 116.236 699.959 114.081C697.847 111.905 696.045 109.441 694.551 106.689C693.079 103.916 691.949 100.887 691.159 97.6012C690.37 94.2945 689.975 90.7638 689.975 87.0092ZM709.271 87.0092C709.271 90.2732 709.634 93.1852 710.359 95.7452C711.106 98.2838 712.183 100.428 713.591 102.177C715.021 103.927 716.759 105.26 718.807 106.177C720.855 107.073 723.181 107.521 725.783 107.521C728.365 107.521 730.679 107.073 732.727 106.177C734.775 105.26 736.503 103.927 737.911 102.177C739.319 100.428 740.386 98.2838 741.111 95.7452C741.858 93.1852 742.231 90.2732 742.231 87.0092C742.231 83.7452 741.858 80.8438 741.111 78.3052C740.386 75.7452 739.319 73.6012 737.911 71.8732C736.503 70.1238 734.775 68.8012 732.727 67.9052C730.679 66.9878 728.365 66.5292 725.783 66.5292C723.181 66.5292 720.855 66.9878 718.807 67.9052C716.759 68.8012 715.021 70.1238 713.591 71.8732C712.183 73.6012 711.106 75.7452 710.359 78.3052C709.634 80.8438 709.271 83.7452 709.271 87.0092ZM816.101 88.7692V51.7452H835.269V122.305H816.101V100.737L816.197 100.641C815.472 104.46 814.384 107.841 812.933 110.785C811.504 113.708 809.733 116.161 807.621 118.145C805.509 120.129 803.088 121.633 800.357 122.657C797.627 123.703 794.608 124.225 791.301 124.225C787.504 124.225 784.144 123.543 781.221 122.177C778.299 120.812 775.856 118.796 773.893 116.129C771.931 113.463 770.437 110.177 769.413 106.273C768.389 102.348 767.877 97.8358 767.877 92.7372V51.7452H787.045V89.5372C787.045 92.5452 787.323 95.1798 787.877 97.4412C788.453 99.6812 789.307 101.548 790.437 103.041C791.589 104.535 793.019 105.655 794.725 106.401C796.453 107.148 798.469 107.521 800.773 107.521C802.395 107.521 803.899 107.34 805.285 106.977C806.672 106.615 807.931 106.081 809.061 105.377C810.213 104.652 811.227 103.767 812.101 102.721C812.976 101.655 813.701 100.428 814.277 99.0412C814.875 97.6332 815.323 96.0758 815.621 94.3692C815.941 92.6625 816.101 90.7958 816.101 88.7692ZM862.615 90.0812V122.305H843.447V51.7452H862.615V76.6092L862.551 76.7052C863.149 72.8652 864.066 69.4092 865.303 66.3372C866.541 63.2438 868.13 60.6198 870.071 58.4652C872.013 56.3105 874.317 54.6572 876.983 53.5052C879.65 52.3318 882.722 51.7452 886.199 51.7452H890.391V69.7932H882.999C879.074 69.7932 875.799 70.1985 873.175 71.0092C870.573 71.8198 868.482 73.0572 866.903 74.7212C865.346 76.3852 864.237 78.4972 863.575 81.0572C862.935 83.5958 862.615 86.6038 862.615 90.0812Z" fill="black"/>
<defs>
<filter id="filter0_d_12_50" x="-9.39862" y="-10" width="1003" height="193.695" filterUnits="userSpaceOnUse" color-interpolation-filters="sRGB">
<feFlood flood-opacity="0" result="BackgroundImageFix"/>
<feColorMatrix in="SourceAlpha" type="matrix" values="0 0 0 0 0 0 0 0 0 0 0 0 0 0 0 0 0 0 127 0" result="hardAlpha"/>
<feOffset dx="8" dy="8"/>
<feComposite in2="hardAlpha" operator="out"/>
<feColorMatrix type="matrix" values="0 0 0 0 0 0 0 0 0 0 0 0 0 0 0 0 0 0 1 0"/>
<feBlend mode="normal" in2="BackgroundImageFix" result="effect1_dropShadow_12_50"/>
<feBlend mode="normal" in="SourceGraphic" in2="effect1_dropShadow_12_50" result="shape"/>
</filter>
</defs>
</svg>
