<svg width="296" height="296" viewBox="0 0 296 296" fill="none" xmlns="http://www.w3.org/2000/svg">
<path d="M226.136 220.817L215.96 171.643L254.648 139.526L259.93 135.141L253.803 132.046L209.006 109.418L208.072 59.2002L207.944 52.3287L201.697 55.193L156.004 76.1445L116.158 45.6347L110.717 41.468L109.056 48.1171L96.8806 96.8813L48.1172 109.056L41.4681 110.717L45.6347 116.158L76.1439 156.005L55.1931 201.697L52.3288 207.944L59.1996 208.072L109.417 209.007L132.046 253.803L135.141 259.929L139.525 254.649L171.643 215.96L220.817 226.136L227.523 227.524L226.136 220.817Z" fill="white" stroke="black" stroke-width="9"/>
</svg>
