<svg width="987" height="260" viewBox="0 0 987 260" fill="none" xmlns="http://www.w3.org/2000/svg">
<g filter="url(#filter0_d_12_80)">
<rect x="271.152" y="19.344" width="459" height="166" transform="rotate(4.22587 271.152 19.344)" fill="#FF9DEF"/>
<rect x="266.534" y="13.9891" width="469" height="176" transform="rotate(4.22587 266.534 13.9891)" stroke="black" stroke-width="10"/>
</g>
<path d="M357.906 56.6233L351.162 147.894L330.993 146.404L337.737 55.133L357.906 56.6233ZM417.345 57.8065L436.461 59.219L429.481 153.681L410.365 152.269L411.969 130.568L412.072 130.48C411.029 134.167 409.686 137.437 408.042 140.289C406.399 143.12 404.493 145.471 402.323 147.343C400.173 149.216 397.762 150.589 395.087 151.461C392.434 152.335 389.587 152.659 386.544 152.434C383.757 152.228 381.15 151.618 378.722 150.605C376.293 149.612 374.081 148.272 372.088 146.585C370.097 144.876 368.331 142.863 366.791 140.546C365.272 138.231 364.029 135.657 363.062 132.826C362.096 129.974 361.413 126.908 361.014 123.626C360.637 120.326 360.584 116.856 360.852 113.218C361.121 109.58 361.684 106.167 362.54 102.979C363.418 99.7708 364.544 96.8378 365.917 94.1797C367.29 91.5217 368.898 89.1591 370.74 87.0919C372.606 85.005 374.648 83.2735 376.868 81.8973C379.087 80.5211 381.472 79.5207 384.021 78.8962C386.571 78.2504 389.24 78.0305 392.027 78.2364C395.069 78.4612 397.838 79.2006 400.334 80.4546C402.851 81.7101 405.035 83.4224 406.885 85.5913C408.757 87.7618 410.297 90.3677 411.506 93.409C412.714 96.4503 413.563 99.8715 414.052 103.673L413.961 103.602L417.345 57.8065ZM412.966 117.069C413.128 114.878 413.108 112.833 412.906 110.936C412.725 109.04 412.372 107.303 411.847 105.724C411.322 104.145 410.624 102.735 409.753 101.494C408.904 100.255 407.891 99.1957 406.715 98.3173C405.541 97.4177 404.213 96.71 402.733 96.1941C401.273 95.6798 399.671 95.3583 397.927 95.2293C395.246 95.0313 392.852 95.2929 390.745 96.0143C388.66 96.7372 386.861 97.9199 385.349 99.5623C383.86 101.185 382.67 103.258 381.777 105.78C380.906 108.304 380.346 111.257 380.096 114.64C379.846 118.023 379.977 121.027 380.489 123.654C381.001 126.28 381.873 128.516 383.106 130.361C384.338 132.206 385.933 133.639 387.89 134.661C389.868 135.684 392.197 136.295 394.878 136.493C396.622 136.622 398.254 136.539 399.773 136.245C401.314 135.952 402.73 135.458 404.022 134.762C405.316 134.045 406.474 133.136 407.497 132.035C408.542 130.914 409.441 129.611 410.192 128.127C410.943 126.642 411.548 124.975 412.005 123.127C412.484 121.28 412.804 119.26 412.966 117.069ZM456.925 121.601C456.689 124.792 456.881 127.694 457.501 130.307C458.144 132.9 459.166 135.136 460.567 137.015C461.968 138.894 463.729 140.393 465.85 141.512C467.993 142.612 470.459 143.265 473.246 143.471C475.097 143.607 476.814 143.52 478.399 143.21C480.006 142.879 481.47 142.324 482.79 141.545C484.132 140.745 485.341 139.733 486.415 138.508C487.513 137.262 488.465 135.803 489.274 134.13L507.241 135.458C505.988 139.387 504.222 142.872 501.944 145.912C499.666 148.952 496.987 151.471 493.909 153.468C490.852 155.467 487.43 156.915 483.641 157.812C479.873 158.731 475.85 159.033 471.574 158.717C466.255 158.324 461.481 157.073 457.251 154.963C453.022 152.854 449.464 150.056 446.577 146.57C443.713 143.064 441.587 138.971 440.2 134.291C438.836 129.591 438.359 124.464 438.77 118.911C439.177 113.401 440.389 108.432 442.406 104.003C444.445 99.5757 447.126 95.8591 450.45 92.8532C453.775 89.826 457.663 87.5784 462.114 86.1104C466.565 84.6424 471.418 84.1026 476.673 84.4909C481.864 84.8744 486.512 86.1056 490.615 88.1842C494.741 90.2432 498.185 93.0005 500.945 96.456C503.729 99.8918 505.772 103.947 507.074 108.621C508.377 113.273 508.823 118.387 508.411 123.961C508.348 124.812 508.263 125.672 508.156 126.541C508.051 127.389 507.922 128.257 507.771 129.144L450.232 124.892L451.105 113.084L498.559 116.591L489.946 127.634C490.092 126.811 490.206 125.996 490.287 125.189C490.391 124.362 490.472 123.555 490.53 122.768C490.797 119.151 490.67 115.954 490.148 113.178C489.649 110.381 488.776 108.007 487.53 106.053C486.284 104.1 484.663 102.579 482.669 101.491C480.697 100.383 478.36 99.7286 475.658 99.529C472.978 99.3309 470.55 99.6221 468.374 100.403C466.199 101.183 464.311 102.413 462.711 104.091C461.134 105.75 459.867 107.839 458.911 110.356C457.955 112.874 457.356 115.76 457.116 119.016L456.925 121.601ZM515.383 115.203C515.698 110.948 516.758 107.165 518.564 103.854C520.392 100.545 522.851 97.8072 525.942 95.6397C529.055 93.4525 532.744 91.8747 537.008 90.9063C541.296 89.9182 546.045 89.6167 551.258 90.0019C556.64 90.3996 561.387 91.4455 565.497 93.1397C569.629 94.8354 573.055 97.0994 575.777 99.9316C578.521 102.744 580.53 106.101 581.803 110.003C583.076 113.905 583.535 118.26 583.18 123.068L580.096 164.81L560.98 163.398L562.338 145.016L562.434 145.023C561.769 147.07 560.922 148.976 559.894 150.739C558.866 152.482 557.68 154.063 556.334 155.482C554.99 156.88 553.488 158.106 551.827 159.16C550.188 160.215 548.422 161.09 546.531 161.785C544.642 162.458 542.629 162.919 540.493 163.168C538.355 163.437 536.138 163.487 533.84 163.318C530.244 163.052 527.005 162.31 524.122 161.092C521.258 159.896 518.84 158.316 516.867 156.352C514.917 154.368 513.462 152.057 512.502 149.42C511.543 146.76 511.179 143.878 511.408 140.771C511.655 137.431 512.535 134.501 514.047 131.982C515.582 129.443 517.662 127.35 520.287 125.705C522.932 124.061 526.099 122.893 529.787 122.203C533.474 121.513 537.616 121.338 542.211 121.677L564.423 123.319L563.564 134.935L543.331 133.44C541.353 133.294 539.596 133.335 538.06 133.564C536.547 133.773 535.255 134.18 534.183 134.785C533.113 135.37 532.276 136.131 531.672 137.071C531.089 138.012 530.75 139.131 530.654 140.429C530.556 141.748 530.746 142.949 531.222 144.032C531.7 145.094 532.434 146.015 533.424 146.794C534.415 147.573 535.662 148.211 537.166 148.707C538.692 149.183 540.444 149.495 542.423 149.641C544.295 149.779 546.084 149.751 547.788 149.556C549.492 149.361 551.09 149.019 552.581 148.53C554.071 148.042 555.422 147.425 556.632 146.68C557.865 145.915 558.935 145.043 559.842 144.061C560.75 143.059 561.462 141.967 561.977 140.786C562.513 139.606 562.832 138.335 562.932 136.974L564.064 121.656C564.243 119.23 564.053 117.034 563.492 115.068C562.931 113.101 562.04 111.409 560.819 109.993C559.599 108.555 558.047 107.413 556.162 106.568C554.3 105.725 552.145 105.213 549.698 105.032C547.23 104.849 545.07 104.989 543.218 105.451C541.388 105.894 539.848 106.614 538.598 107.613C537.347 108.611 536.377 109.877 535.686 111.409C534.997 112.919 534.58 114.653 534.435 116.611L515.383 115.203ZM623.854 95.366C629.024 95.748 633.588 96.6521 637.547 98.0784C641.528 99.5062 644.833 101.387 647.462 103.72C650.094 106.033 652.021 108.753 653.245 111.881C654.49 115.01 654.972 118.468 654.692 122.256L635.832 120.862C635.953 119.224 635.773 117.745 635.293 116.426C634.815 115.086 634.045 113.917 632.985 112.919C631.925 111.92 630.572 111.125 628.926 110.533C627.303 109.921 625.395 109.534 623.204 109.372C621.289 109.231 619.521 109.282 617.898 109.526C616.297 109.771 614.897 110.192 613.698 110.788C612.522 111.364 611.58 112.096 610.872 112.985C610.188 113.855 609.804 114.853 609.72 115.981C609.651 116.917 609.772 117.738 610.084 118.446C610.416 119.155 610.893 119.8 611.513 120.381C612.135 120.94 612.889 121.445 613.776 121.895C614.662 122.346 615.638 122.75 616.702 123.106C617.767 123.463 618.897 123.803 620.092 124.127C621.311 124.431 622.549 124.747 623.809 125.075L628.473 126.222C630.343 126.681 632.315 127.201 634.39 127.782C636.488 128.344 638.544 129.031 640.559 129.843C642.574 130.655 644.491 131.631 646.311 132.77C648.132 133.889 649.699 135.256 651.013 136.872C652.35 138.468 653.368 140.33 654.066 142.456C654.786 144.584 655.042 147.053 654.834 149.861C654.574 153.393 653.607 156.487 651.935 159.145C650.262 161.802 647.94 163.983 644.969 165.689C642.021 167.375 638.447 168.555 634.247 169.229C630.067 169.925 625.307 170.076 619.967 169.682C614.35 169.267 609.445 168.348 605.25 166.926C601.075 165.526 597.62 163.656 594.884 161.314C592.17 158.953 590.193 156.176 588.953 152.983C587.715 149.768 587.245 146.14 587.544 142.097L606.404 143.491C606.274 145.257 606.467 146.843 606.983 148.251C607.499 149.658 608.361 150.877 609.569 151.907C610.778 152.916 612.311 153.735 614.168 154.365C616.048 154.974 618.276 155.374 620.85 155.564C623.126 155.732 625.171 155.712 626.983 155.504C628.797 155.274 630.356 154.866 631.662 154.277C632.968 153.689 633.986 152.93 634.718 152.001C635.45 151.071 635.862 149.989 635.953 148.755C636.027 147.755 635.9 146.868 635.572 146.095C635.267 145.303 634.805 144.605 634.186 144.004C633.567 143.402 632.794 142.863 631.867 142.388C630.941 141.892 629.905 141.441 628.758 141.035C627.611 140.63 626.356 140.248 624.992 139.891C623.649 139.535 622.233 139.163 620.743 138.775L616.113 137.598C614.412 137.173 612.575 136.695 610.604 136.164C608.634 135.612 606.683 134.944 604.751 134.16C602.821 133.354 600.977 132.405 599.218 131.312C597.459 130.22 595.92 128.908 594.6 127.377C593.302 125.827 592.3 124.041 591.594 122.021C590.91 119.981 590.668 117.621 590.866 114.94C591.116 111.558 592.053 108.568 593.678 105.971C595.325 103.376 597.558 101.231 600.379 99.5355C603.221 97.8416 606.615 96.6378 610.561 95.9239C614.53 95.1904 618.961 95.0044 623.854 95.366Z" fill="black"/>
<defs>
<filter id="filter0_d_12_80" x="248.21" y="8.63428" width="499.404" height="228.791" filterUnits="userSpaceOnUse" color-interpolation-filters="sRGB">
<feFlood flood-opacity="0" result="BackgroundImageFix"/>
<feColorMatrix in="SourceAlpha" type="matrix" values="0 0 0 0 0 0 0 0 0 0 0 0 0 0 0 0 0 0 127 0" result="hardAlpha"/>
<feOffset dx="8" dy="8"/>
<feComposite in2="hardAlpha" operator="out"/>
<feColorMatrix type="matrix" values="0 0 0 0 0 0 0 0 0 0 0 0 0 0 0 0 0 0 1 0"/>
<feBlend mode="normal" in2="BackgroundImageFix" result="effect1_dropShadow_12_80"/>
<feBlend mode="normal" in="SourceGraphic" in2="effect1_dropShadow_12_80" result="shape"/>
</filter>
</defs>
</svg>
