<svg width="93" height="92" viewBox="0 0 93 92" fill="none" xmlns="http://www.w3.org/2000/svg">
<mask id="path-1-inside-1_12_223" fill="white">
<path d="M37.8989 0.919715L57.6841 31.3862L92.7734 21.9841L69.912 50.2155L89.6972 80.682L55.7829 67.6636L23.2426 91.0406L34.8227 59.6177L0.908409 46.5992L35.9977 37.1971L37.8989 0.919715Z"/>
</mask>
<path d="M37.8989 0.919715L57.6841 31.3862L92.7734 21.9841L69.912 50.2155L89.6972 80.682L55.7829 67.6636L23.2426 91.0406L34.8227 59.6177L0.908409 46.5992L35.9977 37.1971L37.8989 0.919715Z" fill="white"/>
<path d="M38.3183 0.647395C38.0387 0.828942 37.7592 1.01049 37.4796 1.19203C40.2728 6.61522 43.1087 12.0107 45.9873 17.3784C48.8517 22.7195 51.7583 28.0332 54.7072 33.3194L55.8448 35.3586L58.6028 34.8148C70.5099 32.4668 82.3645 29.923 94.1666 27.1835L88.5902 18.5965C80.6523 27.75 72.872 37.031 65.2492 46.4396L62.5059 49.8255L64.88 53.4833C64.9291 53.559 64.9782 53.6346 65.0273 53.7101C71.5733 63.7901 78.15 73.85 84.7575 83.8899L91.808 75.1833C80.4767 70.9128 69.1321 66.677 57.7742 62.4761L55.0524 61.3928L52.5409 63.1508C41.7896 71.076 31.0648 79.038 20.3664 87.0368L27.8683 92.7452C31.5289 82.1975 35.1599 71.6388 38.7612 61.0691L40.2501 57.3173L36.3269 55.6991C24.915 51.6388 13.4897 47.6134 2.051 43.6227L1.73361 49.6789C13.3334 46.184 24.9235 42.6531 36.5039 39.0863L37.8177 38.7858L37.9509 37.2994C38.0438 31.2565 38.1275 25.2131 38.2019 19.1692C38.2767 13.0953 38.3421 7.02082 38.3983 0.945883C38.0654 0.928438 37.7325 0.910992 37.3996 0.893547C36.8204 6.94107 36.2506 12.9891 35.69 19.0376C35.1323 25.0561 34.5838 31.0752 34.0446 37.0947L35.4915 35.3079C23.6791 38.0091 11.8763 40.7463 0.0832117 43.5195L-9.40073 46.2088L-0.234182 49.5758C10.9367 54.264 22.1209 58.9176 33.3185 63.5363L30.8842 58.1663C26.7655 68.5452 22.6764 78.9351 18.617 89.3359L13.1652 104.513L26.1189 95.0443C37.114 87.4584 48.0826 79.8357 59.0249 72.1763L53.7916 72.8511C65.0432 77.3291 76.3081 81.7723 87.5864 86.1808L104.544 92.6345L94.6369 77.4741C88.1525 67.3543 81.6373 57.2544 75.0913 47.1745C75.0422 47.0989 74.9931 47.0233 74.944 46.9477L74.5749 53.9914C82.193 44.579 89.6536 35.0391 96.9567 25.3716L107.228 12.2676L91.3802 16.7846C79.7895 20.3132 68.2512 24.0375 56.7654 27.9577L60.661 29.453C57.0312 24.6089 53.3592 19.7923 49.6448 15.0031C45.912 10.1902 42.1365 5.40491 38.3183 0.647395ZM37.4796 1.19203L38.3183 0.647395L37.4425 -0.443784L37.3996 0.893547L38.3983 0.945883L37.4796 1.19203Z" fill="black" mask="url(#path-1-inside-1_12_223)"/>
</svg>
