<svg width="982" height="228" viewBox="0 0 982 228" fill="none" xmlns="http://www.w3.org/2000/svg">
<g filter="url(#filter0_d_12_83)">
<rect x="109.147" y="35.2041" width="757" height="166" transform="rotate(-2.29078 109.147 35.2041)" fill="white"/>
<rect x="103.951" y="30.408" width="767" height="176" transform="rotate(-2.29078 103.951 30.408)" stroke="black" stroke-width="10"/>
</g>
<path d="M364.117 55.8143L364.351 61.6656L329.851 63.0457L331.324 61.4495L334.81 148.58L328.543 148.831L325.057 61.7002L326.653 63.1736L292.185 64.5524L291.951 58.7011L364.117 55.8143ZM362.849 112.134C362.701 108.425 362.913 104.915 363.485 101.604C364.078 98.2924 364.981 95.2352 366.192 92.4326C367.425 89.629 368.958 87.1018 370.789 84.8508C372.62 82.5785 374.72 80.637 377.089 79.0263C379.459 77.4156 382.067 76.1584 384.913 75.2546C387.779 74.3286 390.854 73.7999 394.137 73.6686C397.398 73.5381 400.495 73.8199 403.426 74.514C406.357 75.1867 409.056 76.2316 411.526 77.6487C414.016 79.065 416.265 80.8325 418.271 82.9514C420.277 85.0489 422.006 87.4457 423.459 90.1418C424.912 92.8378 426.055 95.8132 426.89 99.0677C427.725 102.322 428.216 105.804 428.365 109.513C428.513 113.222 428.301 116.732 427.729 120.043C427.157 123.354 426.255 126.422 425.023 129.246C423.79 132.05 422.258 134.577 420.426 136.828C418.595 139.079 416.495 141.021 414.126 142.653C411.778 144.263 409.17 145.52 406.303 146.424C403.457 147.35 400.393 147.878 397.111 148.009C393.828 148.14 390.721 147.859 387.789 147.165C384.88 146.491 382.18 145.447 379.69 144.03C377.22 142.592 374.971 140.824 372.944 138.728C370.939 136.63 369.21 134.233 367.757 131.537C366.324 128.819 365.18 125.833 364.324 122.579C363.489 119.325 362.998 115.843 362.849 112.134ZM368.956 111.89C369.149 116.707 369.952 121.041 371.366 124.892C372.8 128.72 374.734 131.963 377.167 134.62C379.601 137.276 382.489 139.285 385.831 140.646C389.173 141.986 392.858 142.575 396.887 142.414C400.916 142.252 404.531 141.371 407.734 139.77C410.957 138.147 413.675 135.913 415.889 133.071C418.102 130.228 419.76 126.842 420.862 122.912C421.985 118.96 422.45 114.575 422.258 109.757C422.065 104.94 421.252 100.617 419.817 96.7886C418.404 92.938 416.481 89.695 414.048 87.0594C411.614 84.4026 408.727 82.4044 405.385 81.0649C402.064 79.7032 398.389 79.103 394.361 79.2641C390.332 79.4253 386.706 80.3176 383.483 81.9411C380.259 83.5432 377.54 85.7657 375.327 88.6084C373.113 91.4298 371.444 94.8166 370.321 98.7686C369.219 102.698 368.764 107.072 368.956 111.89ZM491.609 47.5116L495.395 142.156L466.938 143.294L463.152 48.65L491.609 47.5116ZM526.173 70.3083L528.993 140.812L500.536 141.95L497.716 71.4467L526.173 70.3083ZM525.207 46.1676L525.924 64.0733L497.466 65.2117L496.75 47.306L525.207 46.1676ZM539.25 140.402L536.327 67.3401C536.161 63.1834 536.675 59.4799 537.869 56.2296C539.062 52.9793 540.905 50.2154 543.398 47.938C545.889 45.6392 548.999 43.8601 552.728 42.6008C556.477 41.3192 560.803 40.5804 565.705 40.3842C567.901 40.2964 570.239 40.3096 572.721 40.4239C575.202 40.5381 577.666 40.7491 580.112 41.057L580.918 61.2008C579.482 61.0661 578.037 60.9745 576.583 60.9259C575.129 60.8773 573.784 60.8777 572.548 60.9272C570.907 60.9928 569.504 61.1557 568.34 61.4157C567.176 61.6545 566.229 62.0126 565.501 62.4901C564.794 62.9667 564.274 63.564 563.939 64.2819C563.626 64.9777 563.488 65.8159 563.527 66.7964L563.99 78.3712L565.269 78.32L567.707 139.263L539.25 140.402ZM581.194 68.1073L582.064 89.8499L529.626 91.9476L528.756 70.205L581.194 68.1073ZM609.797 105.042C609.885 107.237 610.219 109.177 610.799 110.862C611.378 112.526 612.181 113.924 613.208 115.057C614.256 116.168 615.506 116.994 616.958 117.533C618.432 118.072 620.106 118.304 621.982 118.229C623.133 118.183 624.194 118.023 625.165 117.749C626.137 117.476 627.007 117.078 627.776 116.556C628.566 116.033 629.256 115.397 629.845 114.648C630.434 113.898 630.944 113.024 631.373 112.025L656.953 111.001C656.073 115.157 654.601 118.92 652.537 122.291C650.472 125.662 647.93 128.56 644.91 130.987C641.889 133.392 638.431 135.281 634.536 136.654C630.664 138.047 626.468 138.834 621.949 139.015C616.449 139.235 611.383 138.541 606.749 136.933C602.137 135.303 598.134 132.922 594.742 129.791C591.35 126.639 588.667 122.818 586.694 118.328C584.721 113.838 583.624 108.832 583.403 103.311C583.182 97.7902 583.865 92.7136 585.452 88.0811C587.06 83.4478 589.408 79.436 592.496 76.0459C595.585 72.6557 599.342 69.9754 603.768 68.0049C608.214 66.0123 613.166 64.9068 618.623 64.6885C624.08 64.4702 629.094 65.177 633.664 66.809C638.255 68.4188 642.225 70.79 645.574 73.9226C648.923 77.0553 651.574 80.8777 653.527 85.3899C655.5 89.88 656.597 94.8961 656.819 100.438C656.855 101.334 656.86 102.262 656.834 103.224C656.83 104.185 656.791 105.083 656.718 105.919L597.949 108.27L597.437 95.4799L640.155 93.7711L631.476 106.576C631.521 105.571 631.536 104.62 631.522 103.724C631.529 102.827 631.516 101.984 631.485 101.196C631.368 98.2753 631.043 95.7689 630.511 93.6765C629.979 91.5841 629.227 89.8634 628.255 88.5145C627.283 87.1657 626.081 86.1889 624.647 85.5844C623.214 84.9799 621.538 84.716 619.62 84.7927C617.829 84.8644 616.274 85.2148 614.954 85.8441C613.655 86.4725 612.592 87.3797 611.764 88.5657C610.936 89.7518 610.333 91.2277 609.956 92.9936C609.599 94.7586 609.468 96.8135 609.562 99.1582L609.797 105.042ZM686.268 108.9L687.292 134.48L662.352 135.477L661.328 109.898L686.268 108.9Z" fill="black"/>
<defs>
<filter id="filter0_d_12_83" x="98.7549" y="-5.44562" width="791.814" height="224.909" filterUnits="userSpaceOnUse" color-interpolation-filters="sRGB">
<feFlood flood-opacity="0" result="BackgroundImageFix"/>
<feColorMatrix in="SourceAlpha" type="matrix" values="0 0 0 0 0 0 0 0 0 0 0 0 0 0 0 0 0 0 127 0" result="hardAlpha"/>
<feOffset dx="8" dy="8"/>
<feComposite in2="hardAlpha" operator="out"/>
<feColorMatrix type="matrix" values="0 0 0 0 0 0 0 0 0 0 0 0 0 0 0 0 0 0 1 0"/>
<feBlend mode="normal" in2="BackgroundImageFix" result="effect1_dropShadow_12_83"/>
<feBlend mode="normal" in="SourceGraphic" in2="effect1_dropShadow_12_83" result="shape"/>
</filter>
</defs>
</svg>
